<?xml version="1.0" encoding="UTF-8"?>
<svg id="Calque_2" xmlns="http://www.w3.org/2000/svg" version="1.1" viewBox="0 0 1307.8 1320.8">
  <!-- Generator: Adobe Illustrator 30.2.1, SVG Export Plug-In . SVG Version: 2.1.1 Build 1)  -->
  <defs>
    <style>
      .st0 {
        fill: none;
        stroke: #000;
        stroke-miterlimit: 10;
        stroke-width: 10px;
      }
    </style>
  </defs>
  <path class="st0" d="M534.2,860l326.4-326.4"/>
  <path class="st0" d="M683.5,1235.5c-72.5,72.5-189.9,72.5-262.4,0h0c-72.5-72.5-72.5-189.9,0-262.4"/>
  <path class="st0" d="M1123,796l-326.4,326.4"/>
  <path class="st0" d="M966.7,427.5c72.5-72.5,189.9-72.5,262.4,0h0c72.5,72.5,72.5,189.9,0,262.4"/>
  <rect class="st0" x="297.2" y="-82.1" width="371.1" height="1142.7" rx="185.5" ry="185.5" transform="translate(487.3 -198.1) rotate(45)"/>
  <g>
    <circle cx="711.3" cy="199.2" r="15"/>
    <circle cx="772.8" cy="260.7" r="15"/>
    <circle cx="640.8" cy="269.7" r="15"/>
    <circle cx="702.3" cy="331.2" r="15"/>
  </g>
  <g>
    <circle cx="243" cy="667.5" r="15"/>
    <circle cx="304.4" cy="729" r="15"/>
    <circle cx="172.4" cy="738" r="15"/>
    <circle cx="233.9" cy="799.5" r="15"/>
  </g>
  <g>
    <g>
      <rect class="st0" x="882.4" y="420.8" width="90.8" height="127.3" rx="24.2" ry="24.2" transform="translate(614.3 -514.1) rotate(45)"/>
      <rect class="st0" x="1126.7" y="665.2" width="90.8" height="127.3" rx="24.2" ry="24.2" transform="translate(858.6 -615.3) rotate(45)"/>
    </g>
    <circle class="st0" cx="1013.9" cy="642.7" r="19.3"/>
    <polygon class="st0" points="1124.6 709.4 1031 625.6 947.2 532 977 502.3 1154.3 679.6 1124.6 709.4"/>
    <path class="st0" d="M1064.1,652l-26.8,26.8c-10.6,10.6-27.9,10.6-38.5,0l-20.9-20.9c-10.6-10.6-10.6-27.9,0-38.5l26.8-26.8"/>
  </g>
  <g>
    <g>
      <rect class="st0" x="684.1" y="1107.7" width="90.8" height="127.3" rx="24.2" ry="24.2" transform="translate(417.1 2515.5) rotate(-135)"/>
      <rect class="st0" x="439.8" y="863.4" width="90.8" height="127.3" rx="24.2" ry="24.2" transform="translate(172.8 1925.7) rotate(-135)"/>
    </g>
    <circle class="st0" cx="643.4" cy="1013.2" r="19.3"/>
    <polygon class="st0" points="532.8 946.5 626.4 1030.2 710.1 1123.8 680.3 1153.6 503 976.3 532.8 946.5"/>
    <path class="st0" d="M593.2,1003.9l26.8-26.8c10.6-10.6,27.9-10.6,38.5,0l20.9,20.9c10.6,10.6,10.6,27.9,0,38.5l-26.8,26.8"/>
  </g>
</svg>