<?xml version="1.0" encoding="UTF-8"?><svg id="Calque_2" xmlns="http://www.w3.org/2000/svg" viewBox="0 0 1307.79 1320.77"><g id="Calque_1-2"><g><rect x="453.55" y="711.81" width="531.49" height="20" transform="translate(-299.27 751.98) rotate(-46.8)"/><rect x="705.35" y="948.28" width="531.49" height="20" transform="translate(-392.23 1010.11) rotate(-46.8)"/><path d="M803.14,1171.77l-34.58-32.48c-10.47-9.84-27-9.32-36.84,1.16l-9.82,10.46-51.98-48.81,17.88-19.04c9.44-10.05,14.4-23.18,13.97-36.96-.43-13.78-6.21-26.57-16.26-36.01-20.75-19.49-53.49-18.46-72.98,2.29l-17.88,19.04-51.98-48.81,9.82-10.46c4.77-5.07,7.27-11.7,7.05-18.66-.22-6.96-3.13-13.42-8.21-18.18l-34.58-32.48c-5.07-4.77-11.72-7.28-18.66-7.05-6.96,.22-13.42,3.13-18.18,8.21l-65.69,69.95c-4.77,5.07-7.27,11.7-7.05,18.66,.22,6.96,3.13,13.42,8.21,18.18l10.2,9.58c-29.14,34.51-44.32,77.97-42.89,123.45,1.53,48.78,21.97,94.05,57.54,127.46,34.14,32.07,78.31,49.53,124.94,49.53,1.95,0,3.91-.03,5.88-.09,45.48-1.43,87.91-19.3,120.52-50.54l10.2,9.58c5.02,4.72,11.43,7.05,17.83,7.05,6.95,0,13.88-2.75,19.01-8.21l65.69-69.95c4.77-5.07,7.27-11.7,7.05-18.66-.22-6.96-3.13-13.42-8.21-18.18Zm-207.6-112.1l31.57-33.62c11.94-12.71,32-13.34,44.71-1.4,6.16,5.78,9.7,13.62,9.96,22.06,.26,8.44-2.77,16.49-8.56,22.64l-31.57,33.62,66.55,62.5-18.67,19.88-179.22-168.32,18.67-19.88,66.56,62.5Zm-166.73-72.06l65.69-69.95c1.11-1.18,2.61-1.86,4.23-1.91,.07,0,.13,0,.2,0,1.55,0,3.01,.58,4.14,1.64l34.58,32.48c1.18,1.11,1.86,2.61,1.91,4.23s-.53,3.16-1.64,4.34l-32.85,34.97-23.02,24.52h0l-9.82,10.46c-1.11,1.18-2.61,1.86-4.23,1.91-1.61,.05-3.16-.53-4.34-1.64l-34.58-32.48c-1.18-1.11-1.86-2.61-1.91-4.23s.53-3.16,1.64-4.34Zm141.62,313.08c-43.43,1.39-84.81-14.27-116.5-44.03-31.68-29.75-49.88-70.06-51.24-113.51-1.26-40.14,12.01-78.51,37.5-109.11l9.78,9.19c4.87,4.57,11.17,7.07,17.82,7.07,.28,0,.56,0,.84-.01,6.96-.22,13.42-3.13,18.18-8.21l9.82-10.46,179.22,168.32-9.82,10.46c-4.77,5.07-7.27,11.7-7.05,18.66,.22,6.96,3.13,13.42,8.21,18.18l9.78,9.19c-28.94,27.37-66.4,43.01-106.54,44.27Zm219.3-105.77l-65.69,69.95c-1.11,1.18-2.61,1.86-4.23,1.91-1.6,.06-3.16-.53-4.34-1.64l-34.58-32.48c-1.18-1.11-1.86-2.61-1.91-4.23s.53-3.16,1.64-4.34l65.69-69.95c1.11-1.18,2.61-1.86,4.23-1.91,.07,0,.13,0,.2,0,1.55,0,3.01,.58,4.14,1.64l34.58,32.48c1.18,1.11,1.86,2.61,1.91,4.23s-.53,3.16-1.64,4.34Z"/><path d="M628.17,1071.13c5.58,5.24,12.7,7.83,19.81,7.83,7.72,0,15.42-3.06,21.11-9.12,10.93-11.64,10.35-30-1.29-40.92-11.64-10.93-30-10.35-40.92,1.28h0c-10.93,11.64-10.35,30,1.29,40.92Zm13.29-27.23c3.38-3.6,9.05-3.78,12.65-.4,3.6,3.38,3.78,9.05,.4,12.65-1.64,1.74-3.86,2.74-6.25,2.82-2.36,.06-4.67-.78-6.41-2.42-3.6-3.38-3.78-9.06-.4-12.66Z"/><path d="M1275,669.33l-10.2-9.58c29.14-34.51,44.32-77.97,42.89-123.45-1.53-48.78-21.97-94.05-57.54-127.46-35.58-33.41-82.03-50.97-130.81-49.44-45.48,1.43-87.91,19.3-120.52,50.54l-10.2-9.58c-10.47-9.84-27-9.32-36.84,1.16l-65.69,69.95c-9.84,10.47-9.32,27,1.16,36.84l34.58,32.48h0c5.02,4.72,11.43,7.05,17.83,7.05,6.95,0,13.88-2.75,19-8.21l9.82-10.46,51.98,48.81-17.88,19.04c-19.49,20.75-18.46,53.49,2.29,72.98,10.05,9.44,23.2,14.41,36.96,13.97,13.78-.43,26.57-6.21,36.01-16.26l17.88-19.04,51.98,48.81-9.82,10.46c-9.84,10.47-9.32,27,1.16,36.84l34.58,32.48c4.87,4.57,11.17,7.06,17.82,7.06,.28,0,.56,0,.84-.01,6.96-.22,13.42-3.13,18.18-8.21l65.69-69.95c9.84-10.47,9.32-27-1.16-36.84Zm-330.91-143.38c-2.29,2.44-6.13,2.56-8.57,.27l-34.58-32.48c-2.44-2.29-2.56-6.13-.27-8.57l65.69-69.95c2.29-2.44,6.13-2.56,8.57-.27l34.58,32.48c2.44,2.29,2.56,6.13,.27,8.57l-32.85,34.97-23.02,24.52h0l-9.82,10.46Zm150.76,94.47l-31.57,33.62c-5.78,6.16-13.62,9.7-22.06,9.96-8.43,.27-16.49-2.77-22.64-8.56-12.71-11.94-13.34-32-1.4-44.71l31.57-33.62-66.55-62.51,11.39-12.13,7.28-7.75,179.22,168.32-18.67,19.88-66.56-62.5Zm-80.31-140.26l9.82-10.46c9.84-10.48,9.32-27-1.16-36.84l-9.78-9.18c62.02-58.57,160.05-59.4,223.04-.25,31.68,29.75,49.88,70.07,51.24,113.51,1.26,40.14-12.01,78.51-37.5,109.11l-9.78-9.19c-5.07-4.77-11.69-7.26-18.66-7.05-6.96,.22-13.41,3.13-18.18,8.21l-9.82,10.46-179.22-168.32Zm247.04,212.33l-65.69,69.95c-1.11,1.18-2.61,1.86-4.23,1.91-1.62,.04-3.16-.53-4.34-1.64l-34.58-32.48c-2.44-2.29-2.56-6.13-.27-8.57l9.82-10.46h0l33.45-35.62,22.42-23.87c1.11-1.18,2.61-1.86,4.23-1.91,1.64-.04,3.16,.53,4.34,1.64l34.58,32.48c2.44,2.29,2.56,6.13,.27,8.57Z"/><path d="M1062.22,608.96c-11.64-10.93-30-10.35-40.92,1.29-10.93,11.64-10.35,30,1.28,40.92,5.58,5.24,12.7,7.83,19.81,7.83,7.72,0,15.42-3.06,21.11-9.12h0c10.93-11.64,10.35-30-1.29-40.93Zm-13.29,27.23c-1.64,1.74-3.85,2.74-6.25,2.82-2.36,.06-4.67-.78-6.41-2.42-3.6-3.38-3.78-9.06-.4-12.66,1.76-1.87,4.14-2.82,6.53-2.82,2.2,0,4.4,.8,6.13,2.42,3.6,3.38,3.78,9.06,.4,12.66Z"/><path d="M867.55,49.53C831.98,16.12,785.53-1.43,736.74,.09c-48.78,1.53-94.05,21.97-127.46,57.54L49.53,653.65C16.12,689.22-1.44,735.68,.09,784.46c1.53,48.78,21.97,94.05,57.54,127.46,34.14,32.07,78.31,49.53,124.94,49.53,1.95,0,3.91-.03,5.88-.09,48.78-1.53,94.05-21.97,127.46-57.54L875.66,307.8c68.97-73.44,65.34-189.3-8.1-258.27ZM301.33,890.13c-29.75,31.68-70.06,49.88-113.51,51.24-43.43,1.38-84.81-14.27-116.5-44.03-31.68-29.75-49.88-70.07-51.24-113.51-1.36-43.44,14.27-84.81,44.03-116.5L623.86,71.32c29.75-31.68,70.06-49.88,113.51-51.24,1.75-.06,3.49-.08,5.23-.08,41.52,0,80.86,15.55,111.26,44.11,65.4,61.42,68.64,164.6,7.22,230L301.33,890.13Z"/><path d="M671.46,171.67c-5.98,6.37-5.67,16.39,.7,22.37,6.37,5.98,16.39,5.67,22.37-.7,5.98-6.37,5.67-16.39-.7-22.37-6.37-5.98-16.39-5.67-22.37,.7Z"/><path d="M734.87,231.22c-5.98,6.37-5.67,16.39,.7,22.37,6.37,5.98,16.39,5.67,22.37-.7s5.67-16.39-.7-22.37c-6.37-5.98-16.39-5.67-22.37,.7Z"/><path d="M601.28,246.41c-5.98,6.37-5.67,16.39,.7,22.37,6.37,5.98,16.39,5.67,22.37-.7,5.98-6.37,5.67-16.39-.7-22.37-6.37-5.98-16.39-5.67-22.37,.7Z"/><path d="M664.68,305.95c-5.98,6.37-5.67,16.39,.7,22.37,6.37,5.98,16.39,5.67,22.37-.7,5.98-6.37,5.67-16.39-.7-22.37-6.37-5.98-16.39-5.67-22.37,.7Z"/><path d="M236.04,635.31c-5.98,6.37-5.67,16.39,.7,22.37,6.37,5.98,16.39,5.67,22.37-.7,5.98-6.37,5.67-16.39-.7-22.37s-16.39-5.67-22.37,.7Z"/><path d="M299.45,694.86c-5.98,6.37-5.67,16.39,.7,22.37,6.37,5.98,16.39,5.67,22.37-.7,5.98-6.37,5.67-16.39-.7-22.37-6.37-5.98-16.39-5.67-22.37,.7Z"/><path d="M165.86,710.04c-5.98,6.37-5.67,16.39,.7,22.37,6.37,5.98,16.39,5.67,22.37-.7,5.98-6.37,5.67-16.39-.7-22.37-6.37-5.98-16.39-5.67-22.37,.7Z"/><path d="M229.26,769.59c-5.98,6.37-5.67,16.39,.7,22.37,6.37,5.98,16.39,5.67,22.37-.7,5.98-6.37,5.67-16.39-.7-22.37-6.37-5.98-16.39-5.67-22.37,.7Z"/></g></g></svg>