<?xml version="1.0" encoding="UTF-8"?><svg id="Calque_2" xmlns="http://www.w3.org/2000/svg" viewBox="0 0 512 512"><defs><style>.cls-1{fill:#fff;}.cls-2{fill:#2dd4bf;}</style></defs><g id="Calque_1-2"><rect class="cls-2" width="512" height="512" rx="93.75" ry="93.75"/><path d="M319.94,55.07l-64.72,200.93H124.09c-27.74,0-52.85-11.24-71.03-29.42-18.18-18.18-29.43-43.3-29.43-71.04,0-55.49,44.98-100.47,100.46-100.47h195.85Z"/><circle class="cls-2" cx="151.51" cy="136.09" r="8.07"/><circle class="cls-2" cx="192.06" cy="136.09" r="8.07"/><circle class="cls-2" cx="151.51" cy="174.98" r="8.07"/><circle class="cls-2" cx="192.06" cy="174.98" r="8.07"/><path class="cls-1" d="M192.06,456.93l64.72-200.93h131.13c27.74,0,52.85,11.24,71.03,29.42,18.18,18.18,29.43,43.3,29.43,71.04,0,55.49-44.98,100.47-100.46,100.47h-195.85Z"/><circle class="cls-2" cx="360.49" cy="375.91" r="8.07"/><circle class="cls-2" cx="319.94" cy="375.91" r="8.07"/><circle class="cls-2" cx="360.49" cy="337.02" r="8.07"/><circle class="cls-2" cx="319.94" cy="337.02" r="8.07"/></g></svg>